<svg width="16" height="16" viewBox="0 0 16 16" fill="none" xmlns="http://www.w3.org/2000/svg">
<g clip-path="url(#clip0_9310_126267)">
<rect width="16" height="16" rx="8" fill="#FF385C"/>
<path d="M12.2985 10.9482C12.223 11.5085 11.846 11.9933 11.3181 12.2088C11.0595 12.3164 10.7794 12.3488 10.4993 12.3164C10.23 12.2841 9.96059 12.1979 9.68054 12.0365C9.29265 11.8208 8.90477 11.4869 8.4523 10.9913C9.16339 10.1187 9.59422 9.32138 9.75588 8.6105C9.83133 8.27643 9.84209 7.97475 9.8098 7.6946C9.76675 7.42531 9.66978 7.17745 9.51889 6.96198C9.18492 6.47723 8.62472 6.19707 7.99984 6.19707C7.37496 6.19707 6.81476 6.48799 6.48079 6.96198C6.3299 7.17745 6.23304 7.42531 6.18988 7.6946C6.14683 7.97475 6.15759 8.28719 6.2438 8.6105C6.40535 9.32138 6.84705 10.1294 7.54738 11.002C7.10568 11.4977 6.70703 11.8317 6.31914 12.0471C6.03909 12.2088 5.7697 12.295 5.50042 12.3272C5.2095 12.3596 4.92935 12.3164 4.68159 12.2196C4.15368 12.0041 3.77667 11.5191 3.70122 10.9589C3.66893 10.6896 3.69046 10.4204 3.79819 10.1187C3.83048 10.0108 3.8844 9.90331 3.93822 9.77395C4.01366 9.60164 4.09987 9.41835 4.18597 9.23517L4.19684 9.21375C4.94011 7.60839 5.73741 5.97084 6.567 4.37646L6.59929 4.31167C6.6855 4.15023 6.7716 3.97792 6.85792 3.81626C6.94402 3.64384 7.04099 3.48219 7.15949 3.34206C7.38572 3.08343 7.6874 2.94341 8.02137 2.94341C8.35533 2.94341 8.65701 3.08343 8.88324 3.34206C9.00174 3.48219 9.09871 3.64384 9.18492 3.81626C9.27113 3.97792 9.35723 4.15023 9.44344 4.31167L9.47583 4.37646C10.2946 5.98161 11.0919 7.61915 11.8352 9.22451V9.23517C11.9214 9.40759 11.9968 9.60164 12.083 9.77395C12.1369 9.90331 12.1907 10.0108 12.223 10.1187C12.3092 10.3987 12.3415 10.6682 12.2985 10.9482ZM7.99984 10.4418C7.41812 9.70926 7.04099 9.0197 6.91173 8.43808C6.85792 8.19022 6.84705 7.97475 6.87944 7.7808C6.90097 7.60839 6.96565 7.45749 7.05175 7.32813C7.25646 7.03753 7.60119 6.85403 7.99984 6.85403C8.39849 6.85403 8.75398 7.02656 8.94792 7.32813C9.03403 7.45749 9.09871 7.60839 9.12024 7.7808C9.15252 7.97475 9.14176 8.20098 9.08795 8.43808C8.95869 9.00904 8.58156 9.6985 7.99984 10.4418ZM12.8587 9.88157C12.8048 9.75231 12.7509 9.61229 12.6971 9.49379C12.6109 9.29996 12.5247 9.11667 12.4492 8.94425L12.4385 8.9336C11.6952 7.31747 10.8979 5.67993 10.0576 4.06412L10.0253 3.99933C9.93906 3.83768 9.85285 3.66526 9.76675 3.49295C9.65891 3.2989 9.55117 3.09441 9.37886 2.90035C9.03403 2.46942 8.53851 2.23242 8.0106 2.23242C7.47193 2.23242 6.98718 2.46942 6.63158 2.87894C6.47003 3.07277 6.35153 3.27748 6.2438 3.47153C6.15759 3.64384 6.07138 3.81626 5.98517 3.97792L5.95288 4.04238C5.1234 5.6584 4.31534 7.29605 3.57196 8.91207L3.5612 8.9336C3.48575 9.10591 3.39954 9.28898 3.31333 9.48303C3.25952 9.60164 3.2056 9.7309 3.15179 9.87092C3.01165 10.2695 2.9686 10.6466 3.02242 11.0344C3.14102 11.8424 3.6797 12.5212 4.42307 12.8228C4.70312 12.9414 4.99404 12.9952 5.29571 12.9952C5.38192 12.9952 5.48966 12.9845 5.57587 12.9736C5.93136 12.9304 6.29761 12.8121 6.6531 12.6073C7.09491 12.3596 7.51509 12.0041 7.98908 11.4869C8.46307 12.0041 8.894 12.3596 9.32494 12.6073C9.68054 12.8121 10.0468 12.9304 10.4023 12.9736C10.4885 12.9845 10.5962 12.9952 10.6824 12.9952C10.9841 12.9952 11.2857 12.9414 11.5551 12.8228C12.3092 12.5212 12.8371 11.8317 12.9556 11.0344C13.0418 10.6572 12.9987 10.2803 12.8587 9.88157Z" fill="white"/>
</g>
<defs>
<clipPath id="clip0_9310_126267">
<rect width="16" height="16" fill="white"/>
</clipPath>
</defs>
</svg>
