<svg width="16" height="17" viewBox="0 0 16 17" fill="none" xmlns="http://www.w3.org/2000/svg">
<path d="M1.05489 11.7243C1.14938 11.6497 1.28678 11.6656 1.36153 11.7604L4.24142 15.403C4.31614 15.4974 4.30093 15.6348 4.20626 15.7097L3.51974 16.2526C3.42525 16.3274 3.28691 16.3114 3.21212 16.2165L0.332237 12.5739C0.257431 12.4794 0.273441 12.3411 0.368369 12.2663L1.05489 11.7243ZM9.93868 9.01728C10.5426 9.01659 11.0325 9.50512 11.0334 10.1091C11.0338 10.7132 10.5447 11.2033 9.94063 11.2038L8.08126 11.2058C7.77901 11.2062 7.53492 11.4518 7.53536 11.7536C7.53603 12.0557 7.78054 12.2999 8.08224 12.2995L10.301 12.2976C10.4965 12.2971 10.6861 12.2313 10.84 12.111L13.9367 9.68525C14.4113 9.31352 15.0969 9.39467 15.4709 9.86787C15.8462 10.3425 15.7659 11.0317 15.2912 11.4079L11.5451 14.3698C11.0758 14.7408 10.4931 14.9405 9.89474 14.9353L8.90841 14.9274L5.33907 14.8972C5.2726 14.8967 5.21027 14.8662 5.16915 14.8142L2.21896 11.0827C2.14375 10.9878 2.16028 10.8499 2.25509 10.7751L3.77364 9.58271C4.23597 9.22011 4.80635 9.02266 5.39376 9.02217L5.68185 9.02119L9.93868 9.01728ZM9.14474 0.320995C11.1784 0.0913375 12.901 1.6766 12.9016 3.66475C12.9016 4.57991 12.5352 5.40945 11.9416 6.01533C11.5546 6.41078 11.3488 6.94987 11.3488 7.50361C11.3486 7.78898 11.1171 8.021 10.8313 8.02119H8.24239C7.95632 8.02116 7.72481 7.78871 7.72481 7.50264C7.72477 6.94325 7.50998 6.40417 7.12032 6.00264C6.44707 5.30839 6.06953 4.32515 6.19552 3.25557C6.36325 1.83881 7.7271 0.481166 9.14474 0.320995ZM10.4611 2.23799C10.5118 2.08535 10.3262 1.96546 10.2072 2.07392L7.93282 4.1501C7.82817 4.2463 7.89597 4.42133 8.03829 4.42158H8.94845C9.05519 4.42158 9.13057 4.52658 9.09688 4.62764L8.61251 6.08076C8.56181 6.23329 8.74644 6.35374 8.86544 6.2458L11.1399 4.16865C11.2448 4.07286 11.1774 3.89766 11.0344 3.89717H10.1242C10.0181 3.89705 9.94337 3.79298 9.97677 3.69209L10.4611 2.23799Z" fill="#ADD63C"/>
</svg>
